<svg id="레이어_1" data-name="레이어 1" xmlns="http://www.w3.org/2000/svg" viewBox="0 0 202 501"><path d="M57,3h87c.86.54,1.7,1.51,2.59,1.56,8.41.52,16.82,1,25.24,1.26,6.67.21,8.1,2.21,6.62,8.69-.6,2.61-.93,6,.2,8.16,4.66,9.09,10,17.81,14.88,26.82a18.23,18.23,0,0,1,2.34,8.17c.15,41.62.1,83.23.1,124.85,0,93.92-.1,187.85.19,281.77,0,7.93-3.3,12.09-9.5,15.62-3.94,2.24-8.32,4.64-10.88,8.15-3.62,5-8.14,6.79-13.67,7.68-6.05,1-12.07,2.17-18.11,3.27H53c-3.26-.71-6.5-1.62-9.8-2.09-7.36-1.06-14.21-2.74-17.87-10.3-.59-1.21-2.07-2.12-3.32-2.88-3.32-2-7-3.61-10.07-5.93a13.77,13.77,0,0,1-6.06-12.09C6.13,391.1,6,316.49,6,241.87Q6,149.44,6.06,57c0-1.63-.26-3.54.45-4.86,3.72-6.86,7.71-13.58,11.6-20.35,1-1.81,2.44-3.5,3-5.44,1.14-3.78,3-7.85,2.48-11.52-.93-6.83,0-8.73,6.9-9,7.92-.3,15.84-.75,23.75-1.27C55.21,4.5,56.09,3.54,57,3Z"/></svg>