<svg id="레이어_1" data-name="레이어 1" xmlns="http://www.w3.org/2000/svg" viewBox="0 0 361 124"><defs><style>.cls-1{fill:#dbefff;}.cls-2{fill:#e9b940;}.cls-3,.cls-4{fill:#fff;stroke-miterlimit:10;}.cls-3{stroke:#e9b940;stroke-width:2px;}.cls-4{stroke:#90b6ff;}</style></defs><path class="cls-1" d="M103,30a19.26,19.26,0,0,1,3-5,12.06,12.06,0,0,1,4-3c1.32-.68,1.52-.52,2-1,1.37-1.36.34-3.19,1-6a10.29,10.29,0,0,1,3-5,12.45,12.45,0,0,1,6-3c2-.53,5.11-1.35,8,0a12.55,12.55,0,0,1,3,2c1,.91,1.07,1.38,2,2a6.27,6.27,0,0,0,3,1c1.81.1,2-.77,4-1a9.52,9.52,0,0,1,5,1,6.53,6.53,0,0,1,3,2,10.38,10.38,0,0,1,1,2c.5,1.13.4,1.39,1,3a5.7,5.7,0,0,0,1,2c.21.23.55.54,2,1,2.29.72,2.88.4,4,1a5.8,5.8,0,0,1,2,2,11.28,11.28,0,0,1,2,5,14.74,14.74,0,0,1,0,4c-.47,3.12-5.05,13.58-16,19-11.62,5.75-30.06,5.67-39-6C103.29,40.85,102.9,33.69,103,30Z"/><path class="cls-2" d="M108,39c-.29-2.1,3.77-5.29,7-5,3.59.32,4.3,4.75,8,5,3.37.23,4.41-3.35,8-3,2.92.29,3.11,2.74,6,3,3.43.3,4.13-3.07,8-3a9.43,9.43,0,0,1,7,4c.73,1,1.09,1.52,1,2C152.08,46.64,108.88,45.52,108,39Z"/><rect class="cls-2" x="104.39" y="41.37" width="44.37" height="66.55"/><path class="cls-1" d="M186,30a19.26,19.26,0,0,1,3-5,12.06,12.06,0,0,1,4-3c1.32-.68,1.52-.52,2-1,1.37-1.36.34-3.19,1-6a10.29,10.29,0,0,1,3-5,12.45,12.45,0,0,1,6-3c2-.53,5.11-1.35,8,0a12.55,12.55,0,0,1,3,2c1,.91,1.07,1.38,2,2a6.27,6.27,0,0,0,3,1c1.81.1,2-.77,4-1a9.52,9.52,0,0,1,5,1,6.53,6.53,0,0,1,3,2,10.38,10.38,0,0,1,1,2c.5,1.13.4,1.39,1,3a5.7,5.7,0,0,0,1,2c.21.23.55.54,2,1,2.29.72,2.88.4,4,1a5.8,5.8,0,0,1,2,2,11.28,11.28,0,0,1,2,5,14.74,14.74,0,0,1,0,4c-.47,3.12-5.05,13.58-16,19-11.62,5.75-30.06,5.67-39-6C186.29,40.85,185.9,33.69,186,30Z"/><path class="cls-2" d="M191,39c-.29-2.1,3.77-5.29,7-5,3.59.32,4.3,4.75,8,5,3.37.23,4.41-3.35,8-3,2.92.29,3.11,2.74,6,3,3.43.3,4.13-3.07,8-3a9.43,9.43,0,0,1,7,4c.73,1,1.09,1.52,1,2C235.08,46.64,191.88,45.52,191,39Z"/><rect class="cls-2" x="187.39" y="41.37" width="44.37" height="66.55"/><path class="cls-3" d="M3,120.35l15.6-90.12,28.65.07q17,.06,25.32,6.43t7.61,17.89q-.93,14.24-15.6,20.18a15.33,15.33,0,0,1,8.21,6.71,19.7,19.7,0,0,1,2.5,11.67Q74.43,106.25,65,113.3t-25.84,7ZM30.86,82l-3.77,21.54,12.68.06a16.16,16.16,0,0,0,9.91-2.93,11.49,11.49,0,0,0,4.7-7.81q1.74-10.31-7.92-10.8ZM33.28,67.8l10,.07Q57,67.55,58.71,57.25,60.21,47.07,48.19,47L36.93,47Z"/><path class="cls-3" d="M167.47,30.23l-10,58.8q-2.17,15.3-12.6,24.08t-26.27,8.54a35.75,35.75,0,0,1-17.09-4.24A24.85,24.85,0,0,1,90.81,106,30.72,30.72,0,0,1,88.49,89.1l10-58.87h21.3l-10,59a27.79,27.79,0,0,0-.12,5.88,9.58,9.58,0,0,0,10.15,9.85q13.6.44,16.4-15.8l10-58.91Z"/><path class="cls-3" d="M249.79,30.23l-10,58.8q-2.17,15.3-12.6,24.08t-26.27,8.54a35.68,35.68,0,0,1-17.08-4.24A24.82,24.82,0,0,1,173.13,106a30.72,30.72,0,0,1-2.32-16.86l10-58.87h21.3l-10,59a27.79,27.79,0,0,0-.12,5.88,9.59,9.59,0,0,0,10.15,9.85q13.62.44,16.4-15.8l10-58.91Z"/><path class="cls-3" d="M286.06,88.48H274.3l-5.57,31.87H247.56l15.6-90.12L295,30.3q15.28,0,23.55,7.14T325.92,57q-.69,9.77-5.63,16.16a33.19,33.19,0,0,1-13.87,10.11l12.13,36.08v1H296Zm-8.92-16.71,12.38.12a15.6,15.6,0,0,0,8.82-2.48,13.67,13.67,0,0,0,5.36-6.8,16,16,0,0,0,.93-8.34q-1.25-6.89-8.79-7.26L281.48,47Z"/><circle class="cls-4" cx="330.5" cy="13.5" r="11"/><circle class="cls-4" cx="353.5" cy="19.5" r="4.5"/><circle class="cls-4" cx="346.5" cy="38.5" r="4.5"/></svg>