<svg id="레이어_1" data-name="레이어 1" xmlns="http://www.w3.org/2000/svg" viewBox="0 0 120 135"><path d="M59.83,3.12q17.67,0,35.33,0c4.29,0,4.76.48,4.44,4.77-.19,2.65-.49,5.29-.8,7.93A52.32,52.32,0,0,0,99.9,33.9c1.42,6.06-.07,11.7-2.31,17.29a42.58,42.58,0,0,0-2.7,8.59c-.66,4-.71,8.13-1,12.2-.51,6.11-1.07,12.22-1.57,18.33-.41,5-.71,10.11-1.14,15.16-.15,1.79-.63,3.56-.78,5.36-.17,2-.06,4-.21,6-.27,3.47-.61,6.94-1,10.4-.3,2.7-3,4.86-6.23,4.79-5.07-.12-10.12-.49-15.19-.6-1.94,0-3.89.48-5.85.5-1.64,0-3.29-.5-4.92-.46-4.77.11-9.52.49-14.29.55a52.93,52.93,0,0,1-8.34-.6c-2.71-.41-3.85-2.49-4.13-5-.4-3.54-.72-7.1-1-10.65-.42-5.3-.72-10.6-1.16-15.9-.81-9.74-1.68-19.47-2.52-29.21-.3-3.55-.78-7.1-.79-10.65,0-4-2.11-7.21-3.4-10.7C19,42.9,19.13,36.6,20.47,30.09c.62-3,.45-6.13.64-9.21a1.74,1.74,0,0,0-.05-.22c-.38-4.75-.82-9.5-1.12-14.26C19.79,4,21,3,23.37,3H59.83Zm.09,4.27v0H28c-2.82,0-3,.13-2.85,3,.14,2.65.35,5.3.65,7.94A37.76,37.76,0,0,1,25,32a25.54,25.54,0,0,0,.79,15.6,63.83,63.83,0,0,1,3.12,11.06c.75,4.4.85,8.91,1.25,13.37q1.48,16.55,3,33.11c.6,6.8,1.12,13.61,1.82,20.4.07.68,1,1.53,1.78,1.82a8.9,8.9,0,0,0,3.15.29c8.27,0,16.53-.14,24.8-.18q8.75,0,17.51,0c1.78,0,2.64-.65,2.77-2.48.49-6.87,1-13.74,1.57-20.61.08-1,.13-2,.22-3,.84-8.5,1.74-17,2.52-25.5.43-4.75.39-9.56,1.06-14.27a59.34,59.34,0,0,1,2.9-12c2.09-5.66,3.26-11.2,1.67-17.21a33.46,33.46,0,0,1-1.1-8.74c0-4.53.47-9.08.9-13.6.22-2.31-.72-2.84-2.84-2.83C81.19,7.43,70.56,7.39,59.92,7.39Z"/><path d="M28.51,38.55c.59-3.36.95-6.85,1.85-10.19,1-3.66.55-7.19.13-10.82a4.94,4.94,0,0,1,.78-3.44,2,2,0,0,1,3.55,1.18c.4,5.36,1.06,10.76-.42,16-2.06,7.35-.57,14.14,2.56,20.89,1.07,2.3,1.29,5.06,1.56,7.64.06.62-1.17,1.87-1.9,2a2.88,2.88,0,0,1-2.3-1.53q-2.45-7.05-4.47-14.23C29.19,43.67,29,41.16,28.51,38.55Z"/></svg>