<svg id="레이어_1" data-name="레이어 1" xmlns="http://www.w3.org/2000/svg" viewBox="0 0 120 135"><path d="M59.67,132.47q-13,0-26,0c-2.22,0-3.94-.6-5.09-2.73a5.11,5.11,0,0,1,3.84-7.58A102.21,102.21,0,0,0,43,120.32c8.42-2.21,10.53-9.6,9.64-16.95-.85-7-5.56-11.51-11-15.12A43.08,43.08,0,0,1,24.43,65.53c-3.17-9.28-2.85-18.73-1.22-28.22C24.2,31.52,25,25.69,26.39,20A138.61,138.61,0,0,1,30.91,6.22c.72-2,2.6-2.45,4.53-2.42,3.82.06,7.63.25,11.45.24,4.7,0,9.39-.2,14.09-.23,7.71,0,15.42,0,23.13,0,3.32,0,4.23.43,5.24,3.53,1.61,4.93,3.08,9.93,4.4,15,1.2,4.58,2.11,9.23,3.15,13.85a4.89,4.89,0,0,1,.14.64c.34,4.46.9,8.91.95,13.36a45.69,45.69,0,0,1-5.47,22.23A41,41,0,0,1,78.66,87.83C73.87,91,70,94.92,67.91,100.34c-2.81,7.36-.07,17.57,8.37,19.82,3.67,1,7.49,1.39,11.25,2,3.11.55,4.43,2.15,4.44,5.22a4.8,4.8,0,0,1-4.73,5L72,132.49c-4.12,0-8.24,0-12.36,0ZM42.55,8.45V8.39H38.81c-3.89,0-4.29.2-5.34,4C32,17.65,30.63,22.88,29.4,28.16c-1.8,7.73-3.4,15.53-3,23.52C27,63.94,31.53,74.56,41.23,82.36,49.38,88.91,58.59,92,69,87.89A35.08,35.08,0,0,0,86.19,74c5-7.71,7.48-16,6.75-25.1-.53-6.61-1.15-13.23-2-19.8a68.64,68.64,0,0,0-2.42-9.69c-.79-2.79-1.87-5.49-2.66-8.28-.52-1.85-1.36-2.84-3.46-2.8-6.45.11-12.9.07-19.35.08Q52.78,8.47,42.55,8.45ZM33,126.84l.06.82a15.12,15.12,0,0,0,2.39.41c3.89.05,7.79,0,11.68,0q18.74,0,37.48-.06a6,6,0,0,0,2-.79,7.23,7.23,0,0,0-1.92-1c-2.67-.47-5.45-.5-8-1.26-5.1-1.49-9.72-4-12-9.13a23.46,23.46,0,0,1,.25-20.19c.89-1.88.11-1.94-1.43-1.88-2.34.08-4.68,0-7,0l-1.63,0c0,.61-.13,1.34.14,1.81,2.39,4.12,2.87,8.57,2.45,13.19a17.19,17.19,0,0,1-6,12.06c-4.59,3.88-10.09,5.17-15.93,5.46A13.44,13.44,0,0,0,33,126.84Z"/><path d="M31.7,45.47c.53-11,2.95-21.59,6.18-32A2.26,2.26,0,0,1,41,11.78c1.51.43,1.65,1.75,1.29,3.06-1,3.61-2.14,7.17-3,10.79a81.72,81.72,0,0,0-1.51,8.21c-.61,4.4-1,8.81-1.63,13.21-.17,1.37-.83,2.34-2.46,2.22S31.81,48,31.7,46.79C31.66,46.36,31.7,45.91,31.7,45.47Z"/></svg>