<svg id="레이어_1" data-name="레이어 1" xmlns="http://www.w3.org/2000/svg" viewBox="0 0 120 135"><path d="M60.38,132H43.28c-5.21,0-7.73-3.34-6.91-8.43,1-6.46,1.84-13,2.53-19.48.84-7.78-1.28-15.11-4-22.27A128.33,128.33,0,0,1,26.23,35c0-5,2.45-7.48,7.42-7.49q7.74,0,15.5,0c4.4,0,6.43,1.85,6.92,6.19.29,2.66,2.14,4.5,4.47,4.45s3.9-1.76,4.14-4.47c.35-3.72,3-6.22,6.49-6.15a6.33,6.33,0,0,1,6.26,6.6c0,4.78,0,9.55,0,14.32,0,1.36.61,2.39,2.06,2.43,1.6,0,2.15-1.05,2.2-2.48,0-.47,0-.93,0-1.4V34.68c0-4.5,2.29-7.14,6.16-7.17s6.65,2.84,6.66,7.27a130.1,130.1,0,0,1-7.69,44.41,116.36,116.36,0,0,0-4.52,15c-1.44,7-.43,14,.5,21,.4,2.95,1,5.87,1.63,8.79.89,4.45-1.88,8-6.39,8C72.18,132,66.28,132,60.38,132ZM31.23,53.13c2,7.68,3.86,14.92,5.88,22.1,1.81,6.43,4.47,12.68,5.61,19.21,1.71,9.77,0,19.54-2,29.18-.69,3.35-.16,4.12,3.21,4.12q16.31,0,32.61,0c3.71,0,4.21-.6,3.42-4.24-3.39-15.66-3.53-30.93,2.84-46.18,5.65-13.5,7.55-27.95,7.44-42.61,0-1.58-.42-2.86-2.21-2.92-2-.05-2.1,1.4-2.1,2.9,0,4.51,0,9,0,13.53A9.27,9.27,0,0,1,85.57,51a6.28,6.28,0,0,1-6.87,4.2,6.47,6.47,0,0,1-5.51-6.55c-.08-4.51,0-9,0-13.52,0-1.57-.1-3.14-2.05-3.25s-2,1.39-2.33,2.85a12.18,12.18,0,0,1-1.58,4.21,8.09,8.09,0,0,1-8.92,3.23A8.43,8.43,0,0,1,52,34.57c-.13-1.54-.4-2.81-2.3-2.82q-8.34,0-16.7,0c-1.26,0-2.38.58-2.36,1.91.06,5,.28,10,.45,15.14h34c.53,0,1.07,0,1.59,0a2.06,2.06,0,0,1,2.19,2.1,2,2,0,0,1-2.1,2.18c-.53,0-1.06,0-1.59,0H31.23Z"/><path d="M46.64,12.94C51.23,4.9,59,2,66.56,5.44a16.85,16.85,0,0,1,4.21,2.91A2.41,2.41,0,0,0,73.52,9,12.68,12.68,0,0,1,90.09,19.27a3.53,3.53,0,0,1,.06,1.95C89.72,22,89,23,88.27,23.08s-1.53-.88-2.17-1.52c-.25-.26-.14-.88-.19-1.34a8.5,8.5,0,0,0-12.48-6.63c-2.62,1.35-2.73,1.29-4.54-1a10.64,10.64,0,0,0-18.49,2.7c-1.13,2.85-1.41,3-4.39,2.05a8.55,8.55,0,0,0-10.12,3.84A4.62,4.62,0,0,1,34,23a2.14,2.14,0,0,1-2-.65,3.27,3.27,0,0,1-.17-2.53c2-4.9,7.88-8,13.38-7.15Z"/></svg>