<svg id="레이어_1" data-name="레이어 1" xmlns="http://www.w3.org/2000/svg" viewBox="0 0 120 135"><path d="M46,131.77c-10.66,0-21.32,0-32,0a17.86,17.86,0,0,1-5.9-.77c-3.75-1.37-4.9-5.93-3.56-10.65a107.52,107.52,0,0,0,2.93-13.87c4.07-28.58,2.09-57.35,2.55-86,.08-4.83.2-9.66.19-14.49,0-2.26.78-3.3,3.21-3.29,21.5.06,43,0,64.48,0,3.22,0,3.53.39,3.57,3.69.07,4.83.16,9.66.09,14.49,0,2,.72,2.59,2.64,2.56,5.25-.1,10.5-.12,15.74,0a16.51,16.51,0,0,1,9.91,3.49,15.3,15.3,0,0,1,6.32,13.34q-.32,13.47,0,26.94c.29,12.33-5.63,20.79-16,26.56-2.52,1.4-5.46,2.09-7.86,3.65a33.35,33.35,0,0,0-7.67,6.5c-.92,1.13-.42,3.69-.09,5.51.76,4.24,1.81,8.43,2.76,12.64,1.25,5.53-1.87,9.64-7.56,9.68-11.25.07-22.49,0-33.74,0Zm31.24-83.3H77c0-12.82-.05-25.65,0-38.47,0-2.35-.84-3-3.09-3q-28.09.1-56.2,0c-2.26,0-3.09.71-3.08,3,.05,12.83,0,25.65,0,38.47,0,17.15.53,34.32-1.67,51.39-.34,2.58.34,3.93,2.82,4.54a40.63,40.63,0,0,1,4,1.34c6.21,2.2,12.58,3.9,19.17,3.88a189.41,189.41,0,0,0,23.83-1.16c5-.65,9.78-3,14.58-4.75.69-.26,1.35-1.8,1.29-2.7-.33-5.13-1.21-10.24-1.29-15.36C77.14,73.29,77.28,60.88,77.28,48.47ZM83.08,125c-1-5.49-1.81-10.22-2.75-14.93-.33-1.68-1.65-1.72-2.94-1.19a79.4,79.4,0,0,1-27.71,5.41,91,91,0,0,1-35.21-5.49c-2.15-.82-2.94-.13-3.29,2.16q-.86,5.55-2,11c-.87,4.32-.24,5.18,4.26,5.19H76a17.48,17.48,0,0,0,4.7-.28C81.68,126.67,82.46,125.54,83.08,125ZM83,97.36c.92-.14,1.33-.07,1.54-.24,4.08-3.39,9.11-5,13.69-7.46,8.31-4.46,13.3-11.15,13.14-21.1-.16-9.54-.22-19.1,0-28.65.2-7.28-4.17-11.1-9.76-11.57-6-.51-12-.39-18-.32-.67,0-1.83,1.41-1.89,2.23-.22,3.07-.11,6.16,0,9.24a8,8,0,0,0,.61,1.95c1.26-1.74,2-3.72,3.29-4.37,4.33-2.12,8.89-1.36,13.13.4,3.41,1.41,4.37,4.67,4.38,8.11,0,7.66.24,15.34-.2,23-.39,6.74-4.26,11.64-10.39,14.28-3,1.3-6.48,1.53-10.24,2.36C82.5,88.9,82.72,93.05,83,97.36ZM81.64,62.91h.07c0,4.49.05,9,0,13.48,0,2.29,1,3.43,3.26,3.49a11,11,0,0,0,3.45-.33c7.69-2.41,9.6-6.46,10.15-13.82.48-6.54.07-13.14.14-19.71,0-2.1-.51-4.15-2.54-4.62-2.4-.56-5-.33-7.5-.33-.29,0-.73.68-.85,1.12a6.43,6.43,0,0,1-4.43,4.36c-1.43.52-1.77,1.47-1.75,2.88C81.68,53.92,81.64,58.41,81.64,62.91Z"/><path d="M19.58,37.49c0-6.07,0-12.14,0-18.22a4.59,4.59,0,0,1,.35-2.41,3.47,3.47,0,0,1,2.25-1.43c.52,0,1.43,1,1.6,1.72a19.62,19.62,0,0,1,.3,4.21q0,17.1,0,34.18a9.69,9.69,0,0,1-.34,3.2c-.25.71-1.14,1.76-1.65,1.7A3,3,0,0,1,20,58.89,11.91,11.91,0,0,1,19.53,55c0-5.82,0-11.65,0-17.47Z"/><path d="M23.89,85.28c-.37,4-.77,7.92-1.12,11.88-.15,1.65-.85,2.77-2.63,2.6s-2.06-1.41-2-2.91c.38-6,.76-11.94,1.09-17.91.1-1.78,1-2.56,2.68-2.52s1.84,1.28,1.83,2.6c0,2.08,0,4.15,0,6.23Z"/></svg>