<svg id="레이어_1" data-name="레이어 1" xmlns="http://www.w3.org/2000/svg" viewBox="0 0 120 135"><path d="M59.83,132c-6.08,0-12.16,0-18.23,0-4.63,0-7.23-2.42-7.57-7.08-.39-5.42-.64-10.85-1.06-16.27-.74-9.73-1.58-19.45-2.35-29.17-.47-5.78-.78-11.57-1.38-17.33a69.46,69.46,0,0,0-1.59-7.47,35,35,0,0,1-.9-4.49c-.4-4.71-.63-9.44-1-14.16-.77-9.5-1.64-19-2.4-28.49-.27-3.46.42-4,3.83-3.88,1.47.06,2.94,0,4.41,0l61.62,0c3.39,0,3.78.35,3.61,3.7-.33,6.61-.58,13.23-1.12,19.82-.68,8.2-1.49,16.39-2.48,24.55-.47,3.85-1.5,7.62-2.25,11.44a18.87,18.87,0,0,0-.34,2.49c-.39,6.26-.65,12.53-1.18,18.77-.58,6.93-1.47,13.83-2.13,20.75-.44,4.72-.69,9.47-1.06,14.2-.19,2.5-.38,5-.71,7.49-.43,3.19-2,4.76-5.18,5-3.48.23-7,.16-10.47.19s-6.71,0-10.06,0ZM60.17,7.71H31c-2.64,0-2.94.29-2.75,2.92.7,9.61,1.45,19.21,2.19,28.82.27,3.55.53,7.11.83,10.65.2,2.29.87,2.9,2.93,2.2,3-1,5.94-.42,8.87.24a39.29,39.29,0,0,0,9,0c6.6-1.53,13.1-1.82,19.31,1.6a2.53,2.53,0,0,0,2,0c4.26-2.1,8.58-3.29,13.31-1.65,1.15.4,2,0,2.09-1.46.5-6.45,1.11-12.9,1.63-19.35.56-7,1-13.93,1.61-20.88.22-2.7,0-3.1-2.75-3.11Zm-.12,120.06c1.19,0,2.38,0,3.57,0,2.74,0,3-.24,3.14-3,1.09-21.2,2.14-42.4,3.27-63.59A3.8,3.8,0,0,0,67.41,57a20.48,20.48,0,0,0-13.27-.6c-3.09.81-3.7,1.82-3.58,5.11.2,5.22.54,10.43.75,15.65.6,14.58,1.06,29.16,1.79,43.73C53.46,128.11,51.8,127.81,60.05,127.77ZM86.31,63.42c.26-7.23-.52-8-6.61-7.19l-.21,0a5.83,5.83,0,0,0-5.1,5.54c-.46,7.45-1,14.89-1.37,22.34-.41,8.36-.64,16.72-1,25.08-.22,5.37-.43,10.73-.76,16.09-.12,1.93,1.15,2.29,2.44,2.42a27,27,0,0,0,5.24,0,2.59,2.59,0,0,0,2.65-2.81c.2-5.3.61-10.58,1-15.87.35-4.8.78-9.6,1.17-14.4C84.64,84,85.5,73.46,86.31,63.42Zm-52.66.1c.27,2.1.63,4.43.86,6.78.6,6.1,1.23,12.2,1.69,18.32C37,99.4,37.7,110.2,38.47,121a39.72,39.72,0,0,0,.67,5c.1.47.65,1.16,1.06,1.21a63.1,63.1,0,0,0,6.44.56c1.58.06,2.41-.71,2.27-2.45-.28-3.62-.49-7.23-.67-10.85q-.72-13.92-1.38-27.83c-.4-8.37-.74-16.75-1.18-25.11,0-1.06-.18-2.49-.85-3.08a10.21,10.21,0,0,0-9.18-2.09,2.32,2.32,0,0,0-2,2.53C33.69,60.32,33.65,61.79,33.65,63.52Z"/><path d="M39.29,30.87a12.83,12.83,0,0,1,0,2.91c-.18.74-.69,1.75-1.29,2-1,.36-2.26.28-2.6-1.25a16.31,16.31,0,0,1-.56-2c-.36-4.23-.66-8.45-1-12.68a26.39,26.39,0,0,0-.51-3.06c-.43-2,.59-3.81,2.29-4,1.45-.17,2.46,1.05,2.6,3.1.34,5,.7,10,1.05,15Z"/></svg>