<svg id="레이어_1" data-name="레이어 1" xmlns="http://www.w3.org/2000/svg" viewBox="0 0 120 135"><path d="M60,4c8.88,0,17.77,0,26.65,0,3.57,0,4.13.54,3.55,4.1-.78,4.76-1.82,9.48-2.69,14.22-.62,3.34-1.17,6.68-1.73,10-1.21,7.18-2.46,14.36-3.58,21.55-.5,3.15-.71,6.35-1.08,9.52-.64,5.41-1.4,10.81-1.94,16.23C78,91,77,102.42,78.9,113.77a28.86,28.86,0,0,0,3.21,8.5,6.12,6.12,0,0,1-2.23,8.31,13.62,13.62,0,0,1-6,1.72c-9.37.18-18.73.12-28.1.07a10.52,10.52,0,0,1-6.91-2.58,5.59,5.59,0,0,1-1.19-7.39A24,24,0,0,0,41.4,109c0-8.81.09-17.64-.24-26.44C41,77.65,40,72.73,39.37,67.81c-.78-6-1.57-11.9-2.43-17.84-.74-5.16-1.51-10.32-2.41-15.45C33.38,28,32.1,21.53,30.84,15c-.5-2.58-1.06-5.14-1.67-7.7-.48-2,.52-3.28,2.92-3.31C36.74,4,41.39,4,46,4ZM60,112.9v0c3.76,0,7.52.12,11.27,0,2.63-.1,2.89-.54,2.78-3.18-.41-10-.51-19.91.75-29.85.81-6.47,1.16-13,1.92-19.48.67-5.69,1.58-11.36,2.47-17,.54-3.48,1.29-6.94,1.88-10.42.44-2.54.7-5.1,1.15-7.63.9-5.1,1.84-10.19,2.87-15.26.26-1.28-.34-1.7-1.31-1.78-1.56-.11-3.14-.07-4.7-.08L38,8.16a4.52,4.52,0,0,0-2.2.24,2.19,2.19,0,0,0-1,1.76c.61,3.93,1.42,7.84,2.11,11.76q1.18,6.75,2.27,13.52C40.48,43.69,41.84,51.93,43,60.2c.66,4.53,1.08,9.09,1.52,13.65.7,7.25,1.54,14.51,1.89,21.79.22,4.67-.32,9.38-.53,14.08-.12,2.39.3,3.07,2.64,3.15C52.39,113,56.21,112.9,60,112.9Zm0,15v0c3.76,0,7.52,0,11.28,0a27.78,27.78,0,0,0,4.64-.49c1.88-.35,2.45-1.5,1.71-3.26-.45-1.06-1-2.07-1.49-3.11-.6-1.32-.83-3.23-1.84-3.82s-2.89,0-4.38,0q-11.16-.1-22.32-.3c-1.32,0-2.69-.24-3.31,1.32A54.16,54.16,0,0,0,42,124.7a2.81,2.81,0,0,0,1.15,2.46,11,11,0,0,0,4.17.69C51.52,127.93,55.76,127.88,60,127.88Z"/><path d="M48.36,37.09v.75c0,1.31-.13,2.5-1.76,2.72s-2.36-.8-2.64-2.2c-.58-2.86-1.12-5.74-1.64-8.62-.84-4.59-1.61-9.19-2.5-13.76-.39-2,.07-3.33,1.55-3.64s2.5.7,2.81,2.69c.2,1.28.52,2.53.77,3.8q1.61,8,3.18,15.94C48.28,35.57,48.29,36.4,48.36,37.09Z"/><path d="M46.65,54.77c0-.54-.18-1.19,0-1.61.35-.65.92-1.49,1.52-1.61a2.66,2.66,0,0,1,2,.88A4.58,4.58,0,0,1,51,54.71c.4,3.1.65,6.22,1.06,9.31.44,3.29,1.06,6.56,1.44,9.85a3.19,3.19,0,0,1-.82,2.29,2.06,2.06,0,0,1-3.5-1,15,15,0,0,1-.66-2.78c-.62-5.87-1.18-11.74-1.76-17.61Z"/></svg>